<svg version="1.1" id="Layer_1" xmlns="http://www.w3.org/2000/svg" xmlns:xlink="http://www.w3.org/1999/xlink" x="0px" y="0px"
	 width="100%" viewBox="0 0 1024 1024" enable-background="new 0 0 1024 1024" xml:space="preserve">
<path fill="#000000" opacity="1.000000" stroke="none" 
	d="
M720.826294,251.927063 
	C755.062134,266.083649 774.644592,291.668976 781.711975,327.217651 
	C782.678345,332.078491 782.922913,337.150757 782.924927,342.125336 
	C782.967590,448.954407 783.089417,555.784058 782.713440,662.611938 
	C782.662598,677.035278 784.116150,691.528137 781.546265,705.976196 
	C774.379822,746.266296 742.072021,778.083374 701.589966,784.275879 
	C697.465027,784.906921 693.348877,785.315552 689.163879,785.314819 
	C574.167908,785.294250 459.171967,785.329712 344.175995,785.307007 
	C297.328339,785.297729 254.901764,748.104065 248.862320,701.701599 
	C248.069641,695.611206 247.794907,689.413940 247.792084,683.265991 
	C247.739716,568.936768 247.735138,454.607513 247.789078,340.278290 
	C247.809921,296.094269 284.627136,253.892029 328.317902,247.668350 
	C336.083832,246.562119 343.860779,245.994522 351.702057,245.996353 
	C463.198090,246.022400 574.694153,246.033279 686.190186,246.015610 
	C697.955261,246.013733 709.382935,247.815125 720.826294,251.927063 
M603.652161,644.097473 
	C586.052612,661.656616 562.212952,658.118713 550.571655,636.160095 
	C549.532043,634.199097 548.378723,633.006897 546.042908,632.965393 
	C541.048523,632.876770 536.057373,632.621155 531.064148,632.453430 
	C526.987366,632.316467 525.134094,633.935364 525.214783,638.378540 
	C525.450684,651.372681 525.291138,664.373840 525.308533,677.372253 
	C525.318726,684.988586 525.337585,685.002075 533.202209,685.002441 
	C580.196533,685.004761 627.190796,684.999390 674.185120,685.000427 
	C677.018005,685.000488 679.853821,684.956360 682.683167,685.065369 
	C691.904907,685.420471 697.945679,691.351074 698.228699,700.549072 
	C698.423340,706.875854 698.246460,713.213196 698.330261,719.544556 
	C698.362122,721.950745 697.878601,724.445312 698.878601,726.948975 
	C703.323914,726.370117 706.636047,724.106628 709.680054,721.580261 
	C722.762756,710.723206 729.291504,696.960144 729.188171,679.710754 
	C728.901672,631.884766 728.996765,584.056519 728.962952,536.229126 
	C728.919189,474.403564 729.033813,412.577484 728.801880,350.752686 
	C728.699951,323.585114 709.612427,302.946899 682.660278,300.059601 
	C668.535645,298.546448 654.355957,299.394318 640.204712,299.384125 
	C544.549744,299.315186 448.894470,299.247833 353.239990,299.477936 
	C335.143951,299.521454 320.446716,307.323608 309.983398,322.386322 
	C303.346497,331.940674 301.362427,342.847137 301.338806,354.184174 
	C301.270782,386.846680 301.330292,419.509399 301.329285,452.172058 
	C301.326935,528.829407 301.252289,605.486816 301.367035,682.143982 
	C301.390594,697.897583 308.110107,710.777100 320.146942,720.814758 
	C323.538300,723.642883 327.434113,725.779663 332.849945,726.765320 
	C332.849945,718.091003 332.811279,710.141846 332.859283,702.193298 
	C332.925964,691.149231 337.239014,686.364990 348.160034,685.217834 
	C350.142059,685.009705 352.153595,685.036560 354.151611,685.033630 
	C379.815125,684.996277 405.478638,684.977661 431.142151,684.943665 
	C439.049438,684.933228 439.038666,684.918518 439.100739,676.791443 
	C439.144012,671.127991 439.107239,665.460510 439.314423,659.802490 
	C439.553772,653.264709 438.664734,652.138245 432.179962,652.150146 
	C412.019165,652.187134 391.858490,652.301636 371.697693,652.337769 
	C360.109711,652.358521 353.531128,641.906372 359.100494,631.733643 
	C361.155457,627.980225 361.773163,624.380371 361.689789,620.346252 
	C361.593384,615.682129 361.463928,611.002747 361.733032,606.352173 
	C361.944977,602.689148 360.865326,600.828186 357.166901,599.390808 
	C344.594666,594.504761 337.579468,583.213013 337.684540,569.157776 
	C337.781494,556.192871 345.577881,544.320679 357.353088,539.940918 
	C360.850342,538.640137 361.845917,536.660706 361.791992,533.235229 
	C361.650421,524.238525 361.600586,515.235046 361.806335,506.240906 
	C361.887115,502.709961 360.680817,501.041260 357.347900,499.619598 
	C344.838257,494.283508 338.049408,484.330444 337.370483,470.955658 
	C336.656982,456.900696 344.358185,445.483765 357.205231,440.415863 
	C360.852203,438.977203 361.841797,437.002472 361.780945,433.356598 
	C361.588989,421.861176 361.420532,410.350861 361.816864,398.866119 
	C362.016418,393.083984 360.743011,389.711456 354.869202,387.107605 
	C342.761444,381.740265 336.057068,368.778564 337.447449,356.089966 
	C338.983063,342.075806 347.708313,331.845490 361.110626,328.344788 
	C374.109802,324.949463 388.380127,329.143585 394.701569,340.829559 
	C399.293304,349.317963 405.040070,350.701965 413.070343,349.700256 
	C413.398712,349.659271 413.739349,349.661560 414.069061,349.694916 
	C417.119019,350.003845 418.877075,348.761444 420.174164,345.836456 
	C425.723267,333.322693 437.096039,326.177948 449.754974,326.916016 
	C463.686859,327.728241 474.486633,335.848480 478.576447,348.586578 
	C482.866455,361.948181 479.998566,375.373627 467.634766,382.349915 
	C457.949493,387.814850 457.872772,394.643738 458.325439,403.134064 
	C458.360870,403.798828 458.407379,404.476746 458.321655,405.131927 
	C457.899628,408.357910 459.098022,410.294983 462.218506,411.691620 
	C467.953857,414.258606 473.524506,418.033905 475.760559,423.770599 
	C479.315308,432.890320 485.796051,433.705261 493.934662,433.130524 
	C500.664307,432.655396 500.718292,433.019073 500.722565,425.991974 
	C500.735168,405.161163 500.704620,384.330353 500.728699,363.499573 
	C500.741211,352.674805 504.786957,348.564880 515.678772,349.124542 
	C525.009216,349.603973 534.335571,349.380798 543.654053,349.692719 
	C547.886475,349.834442 550.169128,348.494446 552.078613,344.551880 
	C562.445007,323.148071 593.581055,320.851471 605.811218,341.202240 
	C610.239136,348.570160 614.793579,350.744263 622.335632,349.722076 
	C623.808655,349.522430 625.342834,349.570770 626.828918,349.712830 
	C630.067688,350.022430 631.829651,348.882507 633.181091,345.637634 
	C638.932800,331.828064 652.577698,324.869904 667.402832,327.767517 
	C682.030945,330.626587 693.242371,343.495453 693.272888,357.920044 
	C693.301208,371.312103 687.324402,381.402954 675.123352,387.068237 
	C670.557434,389.188293 668.966919,391.844086 669.288879,396.638947 
	C669.645325,401.948334 669.451416,407.299683 669.379395,412.631165 
	C669.323608,416.764404 670.953369,418.994415 675.061157,420.704010 
	C690.788452,427.249481 700.329285,439.274353 702.080627,456.201904 
	C703.928467,474.062195 697.790710,489.863525 681.418579,497.777863 
	C670.542236,503.035553 667.633667,509.348999 669.373657,519.880432 
	C669.507385,520.690063 669.467041,521.556763 669.350464,522.374573 
	C668.825928,526.054138 670.352173,528.049866 673.841797,529.533875 
	C686.291199,534.828308 694.658386,549.158203 693.254883,562.131714 
	C691.807983,575.506409 682.419800,585.568176 668.389771,588.780701 
	C654.761902,591.901062 639.302856,584.549072 633.555237,572.214233 
	C627.417175,559.041443 630.778870,540.080688 642.647766,533.651489 
	C651.510132,528.850830 652.378113,522.813965 651.701172,514.715942 
	C651.493652,512.232849 651.585754,509.717255 651.660156,507.220123 
	C651.731018,504.842285 650.737305,503.774536 648.359009,503.108673 
	C632.959412,498.797119 622.460327,489.205078 617.634888,473.783722 
	C616.888794,471.399261 615.684509,470.154266 613.038086,470.198273 
	C606.540649,470.306396 600.039062,470.319183 593.541809,470.210815 
	C590.173218,470.154633 589.248901,471.829926 589.319214,474.869080 
	C589.438477,480.032318 589.649109,485.222961 589.262695,490.360016 
	C588.878540,495.466400 590.606506,498.402863 595.240356,501.036194 
	C606.539490,507.457336 611.847717,517.824646 610.747070,530.697571 
	C609.531250,544.917114 601.642395,554.341248 587.837524,558.425781 
	C575.082764,562.199646 562.981750,559.799683 555.709961,548.861084 
	C549.882751,540.095459 543.249512,538.282471 534.197937,539.264404 
	C532.718201,539.424988 531.193848,539.334045 529.703491,539.204468 
	C526.502930,538.926331 525.243042,540.258301 525.254822,543.520447 
	C525.331665,564.850830 525.331360,586.181763 525.234436,607.512085 
	C525.218994,610.915894 526.748413,611.813110 529.809143,611.722778 
	C534.471069,611.585266 539.157104,611.447021 543.801453,611.766296 
	C548.298218,612.075500 551.004761,610.638794 553.345581,606.500427 
	C559.256897,596.049622 572.198486,590.146973 583.491943,591.983276 
	C609.163940,596.157593 619.776917,622.673706 603.652161,644.097473 
M500.753662,619.500000 
	C500.754822,608.345825 500.679077,597.190796 500.804535,586.038025 
	C500.841614,582.738098 499.910492,581.203491 496.305054,581.212402 
	C465.672974,581.288086 435.040588,581.241699 404.408295,581.210693 
	C401.953186,581.208252 399.928558,581.575256 398.626068,584.126099 
	C395.038239,591.152466 389.765076,596.579407 382.488983,599.825073 
	C379.941986,600.961182 379.259338,602.782898 379.314758,605.386108 
	C379.435211,611.043884 379.685272,616.731812 379.250977,622.358704 
	C378.847534,627.585938 380.904602,628.824219 385.811340,628.773132 
	C406.785431,628.554504 427.763397,628.660950 448.739716,628.721619 
	C457.646484,628.747375 462.319641,633.439148 462.341187,642.224915 
	C462.371399,654.544373 462.499359,666.866821 462.264435,679.181885 
	C462.182495,683.476135 463.455139,685.158203 467.904938,685.020874 
	C476.886993,684.743774 485.888000,684.699280 494.869873,684.955872 
	C499.452148,685.086792 500.881073,683.520630 500.830811,678.933411 
	C500.617310,659.457703 500.748627,639.978149 500.753662,619.500000 
M566.306335,387.450012 
	C559.491882,384.341583 554.787048,379.083527 551.324097,372.609528 
	C550.432678,370.943054 549.725952,369.401062 547.386536,369.441895 
	C542.071716,369.534668 536.752136,369.535065 531.437927,369.417480 
	C527.162476,369.322876 525.170776,370.761505 525.233826,375.522705 
	C525.463135,392.844971 525.447388,410.173981 525.219910,427.496460 
	C525.156982,432.284149 526.696350,433.839417 531.519409,433.756744 
	C546.841187,433.494232 562.170532,433.626404 577.496643,433.680206 
	C585.803223,433.709381 589.754272,437.269745 590.327393,445.462036 
	C590.517029,448.173279 591.721313,448.863159 594.089172,448.846954 
	C600.252563,448.804779 606.419250,448.740906 612.579163,448.899414 
	C615.544189,448.975677 617.119385,447.696655 618.235657,445.071350 
	C623.913940,431.716980 633.674805,422.765228 647.582275,418.515350 
	C650.646851,417.578857 651.772278,415.866089 651.689209,412.700531 
	C651.514526,406.041595 651.563843,399.373444 651.680603,392.711853 
	C651.724304,390.217590 650.899536,388.741547 648.518127,387.752075 
	C643.646179,385.727875 638.927490,382.759979 636.823853,378.029297 
	C633.142151,369.750092 626.898376,368.372986 619.089417,369.410370 
	C618.434509,369.497345 617.748962,369.496368 617.093384,369.412689 
	C612.633911,368.843628 609.838257,370.617950 607.331665,374.523987 
	C597.962891,389.123688 582.340393,394.073883 566.306335,387.450012 
M551.497559,455.338959 
	C543.342529,455.341919 535.187195,455.386627 527.032654,455.324432 
	C524.307617,455.303650 521.843689,455.755188 519.422974,457.176971 
	C514.533813,460.048706 509.565002,459.825989 504.822449,456.696899 
	C502.713623,455.305542 500.661957,454.068634 497.967010,454.123260 
	C492.810181,454.227722 487.648315,454.192657 482.490631,454.099854 
	C479.915039,454.053497 478.203430,454.942841 476.816620,457.259033 
	C473.382416,462.994843 468.466187,467.247864 462.177155,469.524445 
	C459.046387,470.657715 458.249817,472.496185 458.295044,475.519470 
	C458.429535,484.504761 458.550293,493.497833 458.306854,502.477844 
	C458.195557,506.584229 459.586823,507.827301 463.671783,508.061859 
	C479.808014,508.988495 495.943970,508.512268 512.078369,508.490936 
	C517.730408,508.483490 522.296875,509.889435 524.464417,515.627319 
	C525.386414,518.068054 527.171997,518.686951 529.575256,518.639526 
	C534.732666,518.537720 539.893921,518.510498 545.051636,518.586670 
	C547.890564,518.628601 549.728210,517.576843 550.834534,514.865479 
	C554.013123,507.075256 559.601440,501.623444 567.414795,498.521210 
	C569.903076,497.533234 571.014709,495.900024 571.003235,493.209229 
	C570.957031,482.392181 571.000366,471.574707 571.028381,460.757416 
	C571.038025,457.019379 569.197937,455.294708 565.477051,455.345276 
	C561.150818,455.404053 556.823059,455.347534 551.497559,455.338959 
M451.678131,532.309082 
	C441.684235,532.171326 437.717102,528.282227 437.682373,518.414307 
	C437.649567,509.087433 437.570190,499.755768 437.830872,490.435150 
	C437.939697,486.545135 436.721069,485.082733 432.749878,485.169067 
	C422.593933,485.389862 412.430420,485.367432 402.271454,485.275116 
	C399.454102,485.249481 397.598389,486.285217 396.044250,488.556152 
	C392.674774,493.479584 388.171967,497.135925 382.668884,499.434509 
	C380.132751,500.493805 379.266083,502.178497 379.292053,504.850372 
	C379.390869,515.009521 379.380981,525.170593 379.298279,535.330017 
	C379.278412,537.769104 379.986389,539.399353 382.317200,540.457886 
	C389.431824,543.689026 394.494629,549.078308 397.924835,556.012756 
	C399.160400,558.510498 400.799530,559.718750 403.744568,559.714417 
	C434.557953,559.668518 465.371643,559.696777 496.184784,559.823181 
	C499.746521,559.837830 500.842102,558.420837 500.740234,555.060974 
	C500.568695,549.403137 500.465332,543.724060 500.768311,538.077271 
	C501.000824,533.743713 499.519012,532.182495 495.105865,532.245361 
	C480.951202,532.446960 466.791779,532.313538 451.678131,532.309082 
M433.500183,714.421997 
	C412.344299,714.576111 391.188385,714.728638 370.032532,714.889221 
	C369.034027,714.896790 368.029266,714.917236 367.038971,715.031738 
	C362.111359,715.601379 359.410797,718.481201 359.349823,723.182556 
	C359.283783,728.275085 361.968567,731.348755 367.028198,731.823120 
	C368.847717,731.993713 370.690125,731.954041 372.522095,731.953918 
	C468.166656,731.947327 563.811218,731.936035 659.455811,731.913452 
	C661.451660,731.912964 663.485352,731.993896 665.435425,731.656067 
	C669.543457,730.944397 671.964233,728.177429 672.463989,724.218994 
	C672.940552,720.444031 671.121338,717.462830 667.753479,715.552673 
	C665.466858,714.255798 662.951843,714.382385 660.448120,714.382935 
	C585.132141,714.400269 509.816193,714.410095 433.500183,714.421997 
M439.684723,391.147552 
	C439.818054,388.653168 438.210571,387.749359 436.169220,386.988403 
	C431.358490,385.195007 426.642303,382.355316 424.500122,377.985321 
	C420.324402,369.466949 413.608337,368.463165 405.594635,369.378845 
	C405.100861,369.435242 404.589630,369.440521 404.096466,369.383514 
	C400.844727,369.007416 398.860962,370.432068 397.396759,373.357269 
	C394.255005,379.633789 389.487793,384.494202 383.200134,387.634399 
	C380.242310,389.111694 379.250305,391.113098 379.285767,394.350616 
	C379.429871,407.514984 379.458679,420.683685 379.262451,433.846802 
	C379.208801,437.444275 380.248566,439.696503 383.482697,441.429962 
	C391.412750,445.680237 397.136810,451.970245 399.964874,460.669922 
	C400.438568,462.127075 401.024994,463.715302 402.799957,463.781921 
	C410.165924,464.058441 417.548218,465.457306 424.964203,464.076721 
	C424.816986,462.008026 423.703461,460.927399 422.853577,459.725067 
	C412.632202,445.264557 415.508301,423.842346 430.879395,414.890564 
	C439.309265,409.981232 440.494995,404.442047 439.746826,396.520172 
	C439.606354,395.032898 439.714417,393.522156 439.684723,391.147552 
z"/>
</svg>